<?xml version="1.0" encoding="UTF-8"?>
<svg id="Layer_1" data-name="Layer 1" xmlns="http://www.w3.org/2000/svg" viewBox="0 0 1080 1080">
  <defs>
    <style>
      .cls-1 {
        fill: #03181e;
      }
    </style>
  </defs>
  <path class="cls-1" d="m897.12,356.03c-10.46-10.46-27.42-10.46-37.88,0l-165.03,165.03c-10.46,10.46-10.46,27.42,0,37.88l165.03,165.03c10.46,10.46,27.42,10.46,37.88,0l165.03-165.03c10.46-10.46,10.46-27.42,0-37.88l-165.03-165.03Z"/>
  <path class="cls-1" d="m585.99,558.94c-10.46-10.46-10.46-27.42,0-37.88l219.14-219.14c10.46-10.46,10.46-27.42,0-37.88L558.94,17.84c-10.46-10.46-27.42-10.46-37.88,0l-238.08,238.08-54.11,54.11L17.84,521.06c-10.46,10.46-10.46,27.42,0,37.88l89.28,89.28,413.94,413.94c10.46,10.46,27.42,10.46,37.88,0l246.2-246.2c10.46-10.46,10.46-27.42,0-37.88l-219.14-219.14Z"/>
</svg>
